PathFileType	4	(X/Y/Z)	5_coords_data.trc
DataRate	CameraRate	NumFrames	NumMarkers	Units	OrigDataRate	OrigDataStartFrame	OrigNumFrames
30.0	30.0	8	21	m	30.0	49	68
Frame#	Time	THUMB_TIP	THUMB_IP	THUMB_MCP	THUMB_CMC	INDEX_TIP	INDEX_DIP	INDEX_PIP	INDEX_MCP	MIDDLE_TIP	MIDDLE_DIP	MIDDLE_PIP	MIDDLE_MCP	RING_TIP	RING_DIP	RING_PIP	RING_MCP	PINKY_TIP	PINKY_DIP	PINKY_PIP	PINKY_MCP	WRIST
X1	Y1	Z1	X2	Y2	Z2	X3	Y3	Z3	X4	Y4	Z4	X5	Y5	Z5	X6	Y6	Z6	X7	Y7	Z7	X8	Y8	Z8	X9	Y9	Z9	X10	Y10	Z10	X11	Y11	Z11	X12	Y12	Z12	X13	Y13	Z13	X14	Y14	Z14	X15	Y15	Z15	X16	Y16	Z16	X17	Y17	Z17	X18	Y18	Z18	X19	Y19	Z19	X20	Y20	Z20	X21	Y21	Z21
47	1.599999999999993	0.5552535210947409	0.02333172353557933	-0.09166938504401001	0.5364844045502128	0.012585928951469705	-0.09943135405284044	0.5089131277773162	-0.0012927093018495484	-0.10343486468050547	0.4835660902830049	-0.014628551611738816	-0.06923584422453703	0.5762579373069832	0.08285639864591032	-0.08383749858002085	0.5588021610052418	0.07809490414102549	-0.08462746299916662	0.5348358161811515	0.07051499890432755	-0.08503878449809472	0.49999056938238917	0.04612021959905199	-0.08295561091429421	0.5847595594621253	0.05728066951368371	-0.05544293888018873	0.5674614272696703	0.06040099888203598	-0.059806213715143684	0.5388758149146899	0.06476628231231052	-0.06344168024148714	0.49666688946537474	0.050137826920883755	-0.06269146275622682	0.5749656723501477	0.06747688218675374	-0.040151310503148366	0.5569578769791359	0.06828402568202918	-0.03989087768302	0.5320951799622031	0.06959648272281382	-0.04044199705330117	0.4979514693101327	0.04823507727618792	-0.04399420963879843	0.5405460581313088	0.09385108420851218	-0.0074131636321048446	0.5292223079112564	0.08162439578926695	-0.011322226339782422	0.5163563635725889	0.06622866910295744	-0.01750697330912302	0.499849048369986	0.036226356232636925	-0.028831867049609855	0.46228308100186083	-0.023011742144277036	-0.051989820119430985
48	1.6333333333333262	0.5564135640941766	0.024868947438971833	-0.09111233103720989	0.5376013722357319	0.013260085116207576	-0.09738415318489305	0.5108247196970908	-0.001991746959977281	-0.10176735944797695	0.48454329076053215	-0.015078687775710309	-0.06818301081445234	0.572152742662381	0.09134004947794883	-0.07817941962914488	0.5556971268897273	0.0840785340578506	-0.08029675364777915	0.5330344530588634	0.07343004834294498	-0.08253791402029452	0.500634262698098	0.04579421989392074	-0.08289110592601723	0.5801760909739417	0.07918658031793668	-0.049485507988219574	0.5629911528917212	0.0759654047643964	-0.05420800003834742	0.5346432839301882	0.0715455091039846	-0.059333660746084094	0.4952324943199545	0.050782792223778794	-0.0627756327172522	0.5658869074662689	0.08667232445182738	-0.032419699415409384	0.5485127041612022	0.08198161893660671	-0.0334847540072918	0.5244819631049398	0.07611709023310442	-0.03636759399117284	0.4947460862296224	0.04971669741397322	-0.043683174586829056	0.5266347260514843	0.1002244690405959	-0.002173364788074783	0.5175608021633008	0.08665638320997426	-0.007328066735262151	0.5073308438303541	0.06990490538261196	-0.014781117258742997	0.49523053516864635	0.038472058569665846	-0.027682362257783737	0.46228308100186094	-0.023011742144276814	-0.051989820119430985
49	1.6666666666666594	0.5574407023710058	0.02561902583646103	-0.09163758592985642	0.5384971001094916	0.013390665166133076	-0.0960655796825545	0.5123575137566505	-0.002928677657728418	-0.10044976433875255	0.48532770975859574	-0.015540386007058204	-0.06728013201733252	0.5674001435822722	0.09864972412393425	-0.07442159924975433	0.5523404898935669	0.08905752776619502	-0.077454188870992	0.5314216150727077	0.07557173889490465	-0.0809959409442189	0.5017395611515696	0.04510117091265775	-0.08303463068567672	0.5723871837746921	0.09552319595818037	-0.04549760689097693	0.5567133002072819	0.08790784397124762	-0.0504307385566016	0.5304626152161087	0.07688126480893998	-0.05665373136324694	0.4946573254825942	0.05097327490605086	-0.0632039380234124	0.5552002764118467	0.10050366286410317	-0.027498953729176982	0.5394766346262627	0.09193082679167142	-0.02956621536570324	0.5176238587967402	0.08089408807994736	-0.03412982864399153	0.4926371893972761	0.05064579182449136	-0.043898541965819465	0.5144381081313419	0.10463042100012954	0.0006213781689608858	0.5075361919809243	0.09014405314398932	-0.005337539500313529	0.4998086876292072	0.07243526855798399	-0.013553173619519139	0.49168984303737195	0.04009678579598841	-0.027307821784621197	0.46228308100186083	-0.023011742144277036	-0.051989820119430985
50	1.6999999999999926	0.5583094419108396	0.02576683809632563	-0.09329006038146861	0.5391975696393502	0.013204484739007483	-0.09550898273345573	0.513474677481799	-0.003859930502806419	-0.09950379831192097	0.48589722231354593	-0.015962429707190307	-0.06659629947881485	0.5623683012755065	0.10469722474556242	-0.07269647454262576	0.5489242565226684	0.09307449903698795	-0.07618501403458047	0.5299893385484542	0.0770885505617015	-0.08041918049980895	0.5030989436849682	0.04418812812495487	-0.08326610191941702	0.5636778780772047	0.1077141530736273	-0.04334075019727885	0.5500118954833069	0.09695926743330774	-0.048397760638926486	0.5266481438732271	0.0810061191055057	-0.05540073994302573	0.4948445539839653	0.05078842255097771	-0.06386066938091811	0.5445949022771278	0.11076469747313167	-0.024910483643248483	0.5310272911803491	0.09927190156629717	-0.02788295254475409	0.5119726336142685	0.08428710307156162	-0.03358872314227877	0.49158770163338494	0.05113884526504453	-0.0445599758751005	0.5045709404764662	0.1076930731861897	0.0011361422817094593	0.49956122631047994	0.09259578092549237	-0.005186399166964976	0.4940455738981692	0.07421578557066244	-0.013704930039304548	0.4892818526727649	0.04128276125299346	-0.027619178864823832	0.46228308100186083	-0.023011742144277036	-0.051989820119430985
51	1.7333333333333258	0.5590050202751742	0.025441461816755107	-0.09582783160239089	0.5397850255407755	0.012851664452826372	-0.09552983035255977	0.5142762195623077	-0.004672474751499678	-0.09885027651238465	0.48627955758714336	-0.016312071330774947	-0.06613030234185527	0.557582005366957	0.10941739892736635	-0.07264403645129389	0.5457878159112229	0.09613506462709187	-0.07617627237461502	0.5288376722395723	0.07808947514380771	-0.0805419524718263	0.504538483535451	0.043231891665503674	-0.08339403879144938	0.5551385076903976	0.11666399551067341	-0.04249980169351227	0.5435976441409496	0.10370210806200719	-0.04767647459230849	0.5234472614398733	0.08405088637647107	-0.05523961635126545	0.495627267541062	0.05033491221148412	-0.0644823944280146	0.5347041904718676	0.11837760720184642	-0.02415267686538583	0.5237352275011591	0.10457551173411828	-0.027918843623104622	0.5077431960202702	0.08658334154903913	-0.03429980907869304	0.49146835904002206	0.05126110115385396	-0.0453537608033525	0.4973393116929503	0.10984683689675301	-6.0715912698919294e-05	0.49389074190409255	0.09432038431024314	-0.006388166939000069	0.4901841571896036	0.07545376204739918	-0.014821660470477678	0.4879619428370964	0.042074351399513765	-0.02830350601073471	0.46228308100186094	-0.023011742144277036	-0.051989820119430985
52	1.7666666666666588	0.5593102227613916	0.024964416209790397	-0.09893264370391594	0.540164194641344	0.01260154632339705	-0.09600193467734064	0.5147570699179331	-0.005212413930615334	-0.0984434164727918	0.4865237741873723	-0.01654810022191122	-0.06582021570254201	0.5534431964937174	0.11291850741794995	-0.07348264183664566	0.5431478991161771	0.09838764921648846	-0.07677824676397423	0.5279881282140317	0.07875879570658617	-0.08088912125503628	0.5057966612587173	0.042486821701170796	-0.08323833178661148	0.5471742897569435	0.12320213515871536	-0.04249477242450887	0.5378248502023806	0.10860763005418905	-0.04774723858523087	0.5209089886089484	0.08620720981674301	-0.055588434268139586	0.49665700917519795	0.049814911059971156	-0.0647311912780798	0.5264837644796518	0.12355748825677548	-0.02506475899977702	0.5178284976617937	0.10821537907759293	-0.028899604791426198	0.5048947500588484	0.08798423011505763	-0.035502540774684704	0.4918837739612732	0.051143862028323994	-0.045905550638292256	0.49264257538382694	0.11134642768491165	-0.0020717960090185557	0.49040507598211336	0.09550658135081014	-0.008162187173745445	0.4880541412092261	0.07626890968743993	-0.016236660138960916	0.4874041475837162	0.04252568736596485	-0.02895892041967793	0.4622830810018609	-0.023011742144276814	-0.051989820119430985
53	1.7999999999999918	0.5590096924654308	0.024538708256432118	-0.10248209060282287	0.540170137693235	0.012625511117239752	-0.0969011489342352	0.5148554610021565	-0.005427909838760847	-0.09833681456787474	0.48664579233796756	-0.016665790248787005	-0.06565938141062352	0.5500692768561644	0.11544425992924512	-0.07474207016349421	0.5410204822594948	0.10002743818876525	-0.07764739695570715	0.5273392788253068	0.07925191565458367	-0.08128225170164687	0.5067015608481141	0.042035227692689636	-0.0829066986354904	0.5402397868825404	0.1278032796044153	-0.043237860843721	0.532939664320113	0.11206023313109459	-0.04842097750384012	0.5189705320776338	0.08768968984752856	-0.05618947249682055	0.49757101998580444	0.049391757508775336	-0.06464389038381452	0.5198678693530944	0.12701875678839059	-0.026852283014555074	0.5133804306950109	0.11058796552233685	-0.030449815228306434	0.5031538360007671	0.08876521025505124	-0.03672389623701386	0.49242017004737004	0.05094997722562977	-0.04618525978205536	0.4901379277859148	0.11239241377053943	-0.00420862104572567	0.4887340234254694	0.09632077856732169	-0.009929774289732534	0.4872166213971084	0.07680528872644188	-0.017522874207081533	0.4872184401908831	0.0427758886612547	-0.029476257782263603	0.46228308100186083	-0.023011742144276814	-0.051989820119430985
54	1.8333333333333253	0.5581484508722525	0.02425523697233234	-0.10597191169066832	0.5398917715847773	0.012815627444450417	-0.0979826066367935	0.5146506214913807	-0.005391070621787453	-0.09845216758861765	0.4867016695206603	-0.016704662828010086	-0.06557742477396343	0.5475547435123966	0.11713846960258956	-0.07586136401572606	0.5394694551748218	0.10112958065784283	-0.07838001191748602	0.5268725552123241	0.0796025647675298	-0.08152890556336184	0.5073289612425886	0.04177837063208012	-0.08253606332158167	0.5350808070850113	0.13068005580090747	-0.044361723028124356	0.5294626234481096	0.11420041436838646	-0.04934744573176389	0.5176837476440419	0.0885974388602706	-0.05677410581037048	0.4982442332701694	0.049100832600199706	-0.06440766958130632	0.5153089451697971	0.1290423449633673	-0.02886488939379758	0.5105149534971858	0.11195081657046424	-0.03201088701578073	0.5022561618808941	0.08915069807692311	-0.03767894988762318	0.49285059251299035	0.05078057369578437	-0.046280673775397026	0.48904073640618184	0.11310959833516054	-0.005982289913294076	0.48808716138931824	0.09688063281824777	-0.011340589357900393	0.486936823570278	0.07718208780156954	-0.01851387773409064	0.48711208890104096	0.04293173252211191	-0.029817235478352584	0.46228308100186083	-0.023011742144277036	-0.051989820119430985
